<mxfile host="drawio-plugin" modified="2023-09-05T05:59:10.082Z" agent="5.0 (Windows NT 10.0; Win64; x64) AppleWebKit/537.36 (KHTML, like Gecko) Chrome/111.0.0.0 Safari/537.36" version="20.5.3" etag="5-sxfRYwOH9Kd_wKKfyI" type="embed"><diagram id="-Lz1tHeyMcGm918_aHyc" name="Page-1"><mxGraphModel dx="2638" dy="2387" grid="1" gridSize="10" guides="1" tooltips="1" connect="1" arrows="1" fold="1" page="1" pageScale="1" pageWidth="850" pageHeight="1100" math="0" shadow="0"><root><mxCell id="0"/><mxCell id="1" parent="0"/><mxCell id="127" value="&lt;div style=&quot;&quot;&gt;&lt;br&gt;&lt;/div&gt;" style="rounded=0;whiteSpace=wrap;html=1;align=center;verticalAlign=top;strokeWidth=1;" vertex="1" parent="1"><mxGeometry x="1010" y="898" width="710" height="180" as="geometry"/></mxCell><mxCell id="112" value="&lt;div style=&quot;&quot;&gt;&lt;b&gt;&lt;font style=&quot;font-size: 18px;&quot;&gt;WPAY-PPCARD (back-end)&lt;/font&gt;&lt;/b&gt;&lt;/div&gt;" style="rounded=0;whiteSpace=wrap;html=1;align=center;verticalAlign=top;strokeWidth=3;strokeColor=#050505;fillColor=#808080;" vertex="1" parent="1"><mxGeometry x="1010" y="370" width="570" height="490" as="geometry"/></mxCell><mxCell id="119" value="&lt;div style=&quot;&quot;&gt;&lt;br&gt;&lt;/div&gt;" style="rounded=1;whiteSpace=wrap;html=1;align=center;verticalAlign=top;dashed=1;dashPattern=1 1;strokeWidth=3;strokeColor=#050505;fillColor=#333333;sketch=0;shadow=1;glass=0;" vertex="1" parent="1"><mxGeometry x="1020" y="480" width="540" height="370" as="geometry"/></mxCell><mxCell id="88" value="&lt;div style=&quot;&quot;&gt;&lt;br&gt;&lt;/div&gt;" style="rounded=0;whiteSpace=wrap;html=1;align=center;verticalAlign=top;strokeWidth=1;" vertex="1" parent="1"><mxGeometry x="-20" y="890" width="920" height="180" as="geometry"/></mxCell><mxCell id="8" value="&lt;div style=&quot;&quot;&gt;&lt;b&gt;&lt;font style=&quot;font-size: 18px;&quot;&gt;WPAY-CORE (back-end)&lt;/font&gt;&lt;/b&gt;&lt;/div&gt;" style="rounded=0;whiteSpace=wrap;html=1;align=center;verticalAlign=top;strokeWidth=3;strokeColor=#050505;fillColor=#808080;" vertex="1" parent="1"><mxGeometry x="-20" y="370" width="920" height="490" as="geometry"/></mxCell><mxCell id="84" value="&lt;div style=&quot;&quot;&gt;&lt;br&gt;&lt;/div&gt;" style="rounded=1;whiteSpace=wrap;html=1;align=center;verticalAlign=top;dashed=1;dashPattern=1 1;strokeWidth=3;strokeColor=#050505;fillColor=#333333;sketch=0;shadow=1;glass=0;" vertex="1" parent="1"><mxGeometry x="-10" y="480" width="900" height="370" as="geometry"/></mxCell><mxCell id="67" style="rounded=0;orthogonalLoop=1;jettySize=auto;html=1;fontSize=9;strokeColor=#00CC00;strokeWidth=2;exitX=0.5;exitY=1;exitDx=0;exitDy=0;" edge="1" parent="1" source="23" target="66"><mxGeometry relative="1" as="geometry"><mxPoint x="539" y="777" as="sourcePoint"/></mxGeometry></mxCell><mxCell id="6" style="edgeStyle=orthogonalEdgeStyle;rounded=0;orthogonalLoop=1;jettySize=auto;html=1;fontSize=18;strokeColor=#33FFFF;strokeWidth=2;exitX=1;exitY=0.3333333333333333;exitDx=0;exitDy=0;exitPerimeter=0;" edge="1" parent="1" source="2" target="4"><mxGeometry relative="1" as="geometry"><mxPoint x="220" y="120" as="sourcePoint"/></mxGeometry></mxCell><mxCell id="71" value="" style="group" vertex="1" connectable="0" parent="1"><mxGeometry x="89" y="30" width="161" height="70" as="geometry"/></mxCell><mxCell id="2" value="Actor" style="shape=umlActor;verticalLabelPosition=bottom;verticalAlign=top;html=1;outlineConnect=0;" vertex="1" parent="71"><mxGeometry x="-80" y="-80" width="28.411764705882355" height="60" as="geometry"/></mxCell><mxCell id="56" value="&lt;font style=&quot;font-size: 9px;&quot;&gt;CARD_TRNS&lt;/font&gt;" style="shape=cylinder3;whiteSpace=wrap;html=1;boundedLbl=1;backgroundOutline=1;size=15;strokeWidth=2;fontSize=10;strokeColor=#00CC00;fillColor=#1A3300;shadow=1;" vertex="1" parent="1"><mxGeometry y="957.9979679144385" width="89" height="60.00000000000001" as="geometry"/></mxCell><mxCell id="57" value="&lt;font style=&quot;font-size: 9px;&quot;&gt;ACCT_TRNS&lt;/font&gt;" style="shape=cylinder3;whiteSpace=wrap;html=1;boundedLbl=1;backgroundOutline=1;size=15;strokeWidth=2;fontSize=10;strokeColor=#00CC00;fillColor=#1A3300;shadow=1;" vertex="1" parent="1"><mxGeometry x="220" y="957.9979679144385" width="89" height="60.00000000000001" as="geometry"/></mxCell><mxCell id="58" value="&lt;font style=&quot;font-size: 9px;&quot;&gt;MPI_TRNS&lt;/font&gt;" style="shape=cylinder3;whiteSpace=wrap;html=1;boundedLbl=1;backgroundOutline=1;size=15;strokeWidth=2;fontSize=10;strokeColor=#00CC00;fillColor=#1A3300;shadow=1;" vertex="1" parent="1"><mxGeometry x="323" y="957.9979679144385" width="89" height="60.00000000000001" as="geometry"/></mxCell><mxCell id="59" value="&lt;font style=&quot;font-size: 9px;&quot;&gt;FDS_TRNS&lt;/font&gt;" style="shape=cylinder3;whiteSpace=wrap;html=1;boundedLbl=1;backgroundOutline=1;size=15;strokeWidth=2;fontSize=10;strokeColor=#00CC00;fillColor=#1A3300;shadow=1;" vertex="1" parent="1"><mxGeometry x="653" y="957.9979679144385" width="89" height="60.00000000000001" as="geometry"/></mxCell><mxCell id="60" value="&lt;font style=&quot;font-size: 9px;&quot;&gt;PPCD_TRNS&lt;/font&gt;" style="shape=cylinder3;whiteSpace=wrap;html=1;boundedLbl=1;backgroundOutline=1;size=15;strokeWidth=2;fontSize=10;strokeColor=#00CC00;fillColor=#1A3300;shadow=1;" vertex="1" parent="1"><mxGeometry x="761" y="957.9979679144385" width="89" height="60.00000000000001" as="geometry"/></mxCell><mxCell id="63" value="&lt;font style=&quot;font-size: 9px;&quot;&gt;OPENBK_TRNS&lt;/font&gt;" style="shape=cylinder3;whiteSpace=wrap;html=1;boundedLbl=1;backgroundOutline=1;size=15;strokeWidth=2;fontSize=10;strokeColor=#00CC00;fillColor=#1A3300;shadow=1;" vertex="1" parent="1"><mxGeometry x="110" y="957.9979679144385" width="89" height="60.00000000000001" as="geometry"/></mxCell><mxCell id="66" value="&lt;font style=&quot;font-size: 9px;&quot;&gt;PG_TRNS&lt;/font&gt;" style="shape=cylinder3;whiteSpace=wrap;html=1;boundedLbl=1;backgroundOutline=1;size=15;strokeWidth=2;fontSize=10;strokeColor=#00CC00;fillColor=#1A3300;shadow=1;" vertex="1" parent="1"><mxGeometry x="536" y="957.9979679144385" width="89" height="60.00000000000001" as="geometry"/></mxCell><mxCell id="61" style="rounded=0;orthogonalLoop=1;jettySize=auto;html=1;exitX=0.5;exitY=1;exitDx=0;exitDy=0;fontSize=9;strokeColor=#00CC00;strokeWidth=2;" edge="1" parent="1" source="16" target="56"><mxGeometry relative="1" as="geometry"/></mxCell><mxCell id="64" style="rounded=0;orthogonalLoop=1;jettySize=auto;html=1;exitX=0.5;exitY=1;exitDx=0;exitDy=0;fontSize=9;entryX=0.5;entryY=0;entryDx=0;entryDy=0;entryPerimeter=0;strokeColor=#00CC00;strokeWidth=2;" edge="1" parent="1" source="19" target="57"><mxGeometry relative="1" as="geometry"/></mxCell><mxCell id="65" style="rounded=0;orthogonalLoop=1;jettySize=auto;html=1;exitX=0.5;exitY=1;exitDx=0;exitDy=0;entryX=0.5;entryY=0;entryDx=0;entryDy=0;entryPerimeter=0;fontSize=9;strokeColor=#00CC00;strokeWidth=2;" edge="1" parent="1" source="20" target="58"><mxGeometry relative="1" as="geometry"/></mxCell><mxCell id="68" style="rounded=0;orthogonalLoop=1;jettySize=auto;html=1;exitX=0.5;exitY=1;exitDx=0;exitDy=0;fontSize=9;strokeColor=#00CC00;strokeWidth=2;entryX=0.5;entryY=0;entryDx=0;entryDy=0;entryPerimeter=0;" edge="1" parent="1" source="24" target="59"><mxGeometry relative="1" as="geometry"/></mxCell><mxCell id="69" style="rounded=0;orthogonalLoop=1;jettySize=auto;html=1;entryX=0.5;entryY=0;entryDx=0;entryDy=0;entryPerimeter=0;fontSize=9;strokeColor=#00CC00;strokeWidth=2;exitX=0.5;exitY=1;exitDx=0;exitDy=0;" edge="1" parent="1" source="25" target="60"><mxGeometry relative="1" as="geometry"><mxPoint x="740" y="777" as="sourcePoint"/></mxGeometry></mxCell><mxCell id="62" style="rounded=0;orthogonalLoop=1;jettySize=auto;html=1;exitX=0.5;exitY=1;exitDx=0;exitDy=0;fontSize=9;entryX=0.5;entryY=0;entryDx=0;entryDy=0;entryPerimeter=0;strokeColor=#00CC00;strokeWidth=2;" edge="1" parent="1" source="18" target="63"><mxGeometry relative="1" as="geometry"/></mxCell><mxCell id="12" value="&lt;b style=&quot;color: rgb(240, 240, 240); font-family: Helvetica; font-style: normal; font-variant-ligatures: normal; font-variant-caps: normal; letter-spacing: normal; orphans: 2; text-align: center; text-indent: 0px; text-transform: none; widows: 2; word-spacing: 0px; -webkit-text-stroke-width: 0px; background-color: initial; text-decoration-thickness: initial; text-decoration-style: initial; text-decoration-color: initial;&quot;&gt;&lt;font style=&quot;font-size: 18px;&quot;&gt;Eureka Server&lt;/font&gt;&lt;/b&gt;" style="rounded=1;whiteSpace=wrap;html=1;fontSize=14;verticalAlign=middle;strokeColor=#990000;strokeWidth=2;fillColor=#660033;shadow=1;" vertex="1" parent="1"><mxGeometry x="283" y="410" width="330" height="47.29" as="geometry"/></mxCell><mxCell id="35" style="rounded=0;orthogonalLoop=1;jettySize=auto;html=1;exitX=1;exitY=0.5;exitDx=0;exitDy=0;entryX=0.5;entryY=1;entryDx=0;entryDy=0;fontSize=10;strokeColor=#CC0000;strokeWidth=2;" edge="1" parent="1" source="13" target="12"><mxGeometry relative="1" as="geometry"/></mxCell><mxCell id="72" style="rounded=0;orthogonalLoop=1;jettySize=auto;html=1;entryX=0.75;entryY=0;entryDx=0;entryDy=0;strokeColor=#FFFF00;strokeWidth=2;fontSize=9;exitX=0.5;exitY=1;exitDx=0;exitDy=0;dashed=1;" edge="1" parent="1" source="13" target="16"><mxGeometry relative="1" as="geometry"><mxPoint x="160" y="580.4411764705883" as="sourcePoint"/></mxGeometry></mxCell><mxCell id="73" style="edgeStyle=none;rounded=0;orthogonalLoop=1;jettySize=auto;html=1;entryX=0.5;entryY=0;entryDx=0;entryDy=0;strokeColor=#FFFF00;strokeWidth=2;fontSize=9;exitX=0.5;exitY=1;exitDx=0;exitDy=0;dashed=1;" edge="1" parent="1" source="13" target="18"><mxGeometry relative="1" as="geometry"><mxPoint x="250" y="573.5294117647059" as="sourcePoint"/></mxGeometry></mxCell><mxCell id="74" style="edgeStyle=none;rounded=0;orthogonalLoop=1;jettySize=auto;html=1;exitX=0.5;exitY=1;exitDx=0;exitDy=0;entryX=0.5;entryY=0;entryDx=0;entryDy=0;strokeColor=#FFFF00;strokeWidth=2;fontSize=9;dashed=1;" edge="1" parent="1" source="13" target="19"><mxGeometry relative="1" as="geometry"/></mxCell><mxCell id="75" style="edgeStyle=none;rounded=0;orthogonalLoop=1;jettySize=auto;html=1;exitX=0.5;exitY=1;exitDx=0;exitDy=0;entryX=0.5;entryY=0;entryDx=0;entryDy=0;strokeColor=#FFFF00;strokeWidth=2;fontSize=9;dashed=1;" edge="1" parent="1" source="13" target="20"><mxGeometry relative="1" as="geometry"/></mxCell><mxCell id="76" style="edgeStyle=none;rounded=0;orthogonalLoop=1;jettySize=auto;html=1;exitX=0.5;exitY=1;exitDx=0;exitDy=0;entryX=0.25;entryY=0;entryDx=0;entryDy=0;strokeColor=#FFFF00;strokeWidth=2;fontSize=9;dashed=1;" edge="1" parent="1" source="13" target="21"><mxGeometry relative="1" as="geometry"/></mxCell><mxCell id="77" style="edgeStyle=none;rounded=0;orthogonalLoop=1;jettySize=auto;html=1;exitX=0.5;exitY=1;exitDx=0;exitDy=0;entryX=0.5;entryY=0;entryDx=0;entryDy=0;strokeColor=#FFFF00;strokeWidth=2;fontSize=9;dashed=1;" edge="1" parent="1" source="13" target="23"><mxGeometry relative="1" as="geometry"/></mxCell><mxCell id="78" style="edgeStyle=none;rounded=0;orthogonalLoop=1;jettySize=auto;html=1;exitX=0.5;exitY=1;exitDx=0;exitDy=0;entryX=0.5;entryY=0;entryDx=0;entryDy=0;strokeColor=#FFFF00;strokeWidth=2;fontSize=9;dashed=1;" edge="1" parent="1" source="13" target="24"><mxGeometry relative="1" as="geometry"/></mxCell><mxCell id="79" style="edgeStyle=none;rounded=0;orthogonalLoop=1;jettySize=auto;html=1;exitX=0.5;exitY=1;exitDx=0;exitDy=0;entryX=0;entryY=0;entryDx=0;entryDy=0;strokeColor=#FFFF00;strokeWidth=2;fontSize=9;dashed=1;" edge="1" parent="1" source="13" target="25"><mxGeometry relative="1" as="geometry"/></mxCell><mxCell id="13" value="&lt;b style=&quot;color: rgb(240, 240, 240); font-family: Helvetica; font-style: normal; font-variant-ligatures: normal; font-variant-caps: normal; letter-spacing: normal; orphans: 2; text-align: center; text-indent: 0px; text-transform: none; widows: 2; word-spacing: 0px; -webkit-text-stroke-width: 0px; background-color: initial; text-decoration-thickness: initial; text-decoration-style: initial; text-decoration-color: initial; font-size: 16px;&quot;&gt;&lt;font style=&quot;font-size: 16px;&quot;&gt;Spring&lt;br&gt;Gateway&lt;br&gt;&lt;/font&gt;&lt;/b&gt;" style="rounded=1;whiteSpace=wrap;html=1;fontSize=14;verticalAlign=middle;strokeColor=#FF99FF;strokeWidth=2;" vertex="1" parent="1"><mxGeometry x="20" y="550" width="170" height="80" as="geometry"/></mxCell><mxCell id="29" style="rounded=0;orthogonalLoop=1;jettySize=auto;html=1;exitX=0.5;exitY=0;exitDx=0;exitDy=0;entryX=0.5;entryY=1;entryDx=0;entryDy=0;fontSize=10;strokeWidth=2;strokeColor=#CC0000;" edge="1" parent="1" source="16" target="12"><mxGeometry relative="1" as="geometry"/></mxCell><mxCell id="16" value="&lt;font style=&quot;font-size: 10px;&quot;&gt;카드사 연동&lt;/font&gt;" style="rounded=1;whiteSpace=wrap;html=1;strokeWidth=2;fontSize=14;strokeColor=#FFFF33;fillColor=#331A00;shadow=1;" vertex="1" parent="1"><mxGeometry x="9.5" y="777.9963068768177" width="70" height="41.2280701754386" as="geometry"/></mxCell><mxCell id="30" style="rounded=0;orthogonalLoop=1;jettySize=auto;html=1;exitX=0.5;exitY=0;exitDx=0;exitDy=0;entryX=0.5;entryY=1;entryDx=0;entryDy=0;fontSize=10;strokeWidth=2;strokeColor=#CC0000;" edge="1" parent="1" source="18" target="12"><mxGeometry relative="1" as="geometry"/></mxCell><mxCell id="18" value="&lt;font style=&quot;font-size: 10px;&quot;&gt;오픈뱅킹 연동&lt;/font&gt;" style="rounded=1;whiteSpace=wrap;html=1;strokeWidth=2;fontSize=14;strokeColor=#FFFF33;fillColor=#331A00;shadow=1;" vertex="1" parent="1"><mxGeometry x="114.5" y="777.9963068768177" width="80" height="41.2280701754386" as="geometry"/></mxCell><mxCell id="32" style="rounded=0;orthogonalLoop=1;jettySize=auto;html=1;exitX=0.5;exitY=0;exitDx=0;exitDy=0;entryX=0.5;entryY=1;entryDx=0;entryDy=0;fontSize=10;strokeWidth=2;strokeColor=#CC0000;" edge="1" parent="1" source="19" target="12"><mxGeometry relative="1" as="geometry"/></mxCell><mxCell id="19" value="&lt;font style=&quot;font-size: 10px;&quot;&gt;쿠콘계좌 연동&lt;/font&gt;" style="rounded=1;whiteSpace=wrap;html=1;strokeWidth=2;fontSize=14;strokeColor=#FFFF33;fillColor=#331A00;shadow=1;" vertex="1" parent="1"><mxGeometry x="224.5" y="777.9963068768177" width="80" height="41.2280701754386" as="geometry"/></mxCell><mxCell id="36" style="rounded=0;orthogonalLoop=1;jettySize=auto;html=1;exitX=0.5;exitY=0;exitDx=0;exitDy=0;entryX=0.5;entryY=1;entryDx=0;entryDy=0;fontSize=10;strokeWidth=2;strokeColor=#CC0000;" edge="1" parent="1" source="20" target="12"><mxGeometry relative="1" as="geometry"/></mxCell><mxCell id="20" value="&lt;div style=&quot;&quot;&gt;&lt;font style=&quot;font-size: 10px;&quot;&gt;기준정보 조회&lt;/font&gt;&lt;/div&gt;&lt;div style=&quot;&quot;&gt;&lt;font style=&quot;font-size: 10px;&quot;&gt;휴대폰 본인인증&lt;/font&gt;&lt;/div&gt;" style="rounded=1;whiteSpace=wrap;html=1;strokeWidth=2;fontSize=14;strokeColor=#FFFF33;fillColor=#331A00;shadow=1;" vertex="1" parent="1"><mxGeometry x="320" y="777.9963068768177" width="95" height="41.2280701754386" as="geometry"/></mxCell><mxCell id="38" style="rounded=0;orthogonalLoop=1;jettySize=auto;html=1;exitX=0.5;exitY=0;exitDx=0;exitDy=0;entryX=0.5;entryY=1;entryDx=0;entryDy=0;fontSize=10;strokeWidth=2;strokeColor=#CC0000;" edge="1" parent="1" source="21" target="12"><mxGeometry relative="1" as="geometry"/></mxCell><mxCell id="81" style="edgeStyle=none;rounded=0;orthogonalLoop=1;jettySize=auto;html=1;exitX=0.5;exitY=1;exitDx=0;exitDy=0;entryX=0.5;entryY=0;entryDx=0;entryDy=0;entryPerimeter=0;strokeColor=#00CC00;strokeWidth=2;fontSize=9;" edge="1" parent="1" source="21" target="80"><mxGeometry relative="1" as="geometry"/></mxCell><mxCell id="21" value="&lt;font style=&quot;font-size: 10px;&quot;&gt;쿠콘ARS &lt;br&gt;인증 연동&lt;/font&gt;" style="rounded=1;whiteSpace=wrap;html=1;strokeWidth=2;fontSize=14;strokeColor=#FFFF33;fillColor=#331A00;shadow=1;" vertex="1" parent="1"><mxGeometry x="439.5" y="777.9963068768177" width="70" height="41.2280701754386" as="geometry"/></mxCell><mxCell id="40" style="rounded=0;orthogonalLoop=1;jettySize=auto;html=1;exitX=0.5;exitY=0;exitDx=0;exitDy=0;entryX=0.5;entryY=1;entryDx=0;entryDy=0;fontSize=10;strokeWidth=2;strokeColor=#CC0000;" edge="1" parent="1" source="23" target="12"><mxGeometry relative="1" as="geometry"/></mxCell><mxCell id="23" value="&lt;div style=&quot;&quot;&gt;&lt;span style=&quot;font-size: 10px;&quot;&gt;PG승인,&lt;/span&gt;&lt;/div&gt;&lt;div style=&quot;&quot;&gt;&lt;span style=&quot;font-size: 10px;&quot;&gt;망취소 연동&lt;/span&gt;&lt;br&gt;&lt;/div&gt;" style="rounded=1;whiteSpace=wrap;html=1;strokeWidth=2;fontSize=14;strokeColor=#FFFF33;fillColor=#331A00;shadow=1;" vertex="1" parent="1"><mxGeometry x="530" y="777.9963068768177" width="95" height="41.2280701754386" as="geometry"/></mxCell><mxCell id="42" style="rounded=0;orthogonalLoop=1;jettySize=auto;html=1;exitX=0.5;exitY=0;exitDx=0;exitDy=0;entryX=0.5;entryY=1;entryDx=0;entryDy=0;fontSize=10;strokeWidth=2;strokeColor=#CC0000;" edge="1" parent="1" source="24" target="12"><mxGeometry relative="1" as="geometry"/></mxCell><mxCell id="24" value="&lt;div style=&quot;&quot;&gt;&lt;span style=&quot;font-size: 10px;&quot;&gt;FDS 연동&lt;/span&gt;&lt;br&gt;&lt;/div&gt;" style="rounded=1;whiteSpace=wrap;html=1;strokeWidth=2;fontSize=14;strokeColor=#FFFF33;fillColor=#331A00;shadow=1;" vertex="1" parent="1"><mxGeometry x="650" y="777.9963068768177" width="95" height="41.2280701754386" as="geometry"/></mxCell><mxCell id="44" style="rounded=0;orthogonalLoop=1;jettySize=auto;html=1;exitX=0.5;exitY=0;exitDx=0;exitDy=0;entryX=0.5;entryY=1;entryDx=0;entryDy=0;fontSize=10;strokeWidth=2;strokeColor=#CC0000;" edge="1" parent="1" source="25" target="12"><mxGeometry relative="1" as="geometry"/></mxCell><mxCell id="25" value="&lt;div style=&quot;&quot;&gt;&lt;span style=&quot;font-size: 10px;&quot;&gt;선불카드 연동&lt;/span&gt;&lt;br&gt;&lt;/div&gt;" style="rounded=1;whiteSpace=wrap;html=1;strokeWidth=2;fontSize=14;strokeColor=#FFFF33;fillColor=#331A00;shadow=1;" vertex="1" parent="1"><mxGeometry x="758" y="777.9963068768177" width="95" height="41.2280701754386" as="geometry"/></mxCell><mxCell id="47" style="rounded=0;orthogonalLoop=1;jettySize=auto;html=1;exitX=0.5;exitY=0;exitDx=0;exitDy=0;entryX=0.5;entryY=1;entryDx=0;entryDy=0;fontSize=10;strokeColor=#B266FF;strokeWidth=2;" edge="1" parent="1" source="16" target="14"><mxGeometry relative="1" as="geometry"/></mxCell><mxCell id="48" style="rounded=0;orthogonalLoop=1;jettySize=auto;html=1;exitX=0.5;exitY=0;exitDx=0;exitDy=0;entryX=0.5;entryY=1;entryDx=0;entryDy=0;fontSize=10;strokeColor=#B266FF;strokeWidth=2;" edge="1" parent="1" source="18" target="14"><mxGeometry relative="1" as="geometry"/></mxCell><mxCell id="49" style="rounded=0;orthogonalLoop=1;jettySize=auto;html=1;exitX=0.5;exitY=0;exitDx=0;exitDy=0;entryX=0.5;entryY=1;entryDx=0;entryDy=0;fontSize=10;strokeColor=#B266FF;strokeWidth=2;" edge="1" parent="1" source="19" target="14"><mxGeometry relative="1" as="geometry"/></mxCell><mxCell id="50" style="rounded=0;orthogonalLoop=1;jettySize=auto;html=1;exitX=0.5;exitY=0;exitDx=0;exitDy=0;entryX=0.5;entryY=1;entryDx=0;entryDy=0;fontSize=10;strokeColor=#B266FF;strokeWidth=2;" edge="1" parent="1" source="20" target="14"><mxGeometry relative="1" as="geometry"/></mxCell><mxCell id="51" style="rounded=0;orthogonalLoop=1;jettySize=auto;html=1;exitX=0.5;exitY=0;exitDx=0;exitDy=0;fontSize=10;strokeColor=#B266FF;strokeWidth=2;entryX=0.5;entryY=1;entryDx=0;entryDy=0;" edge="1" parent="1" source="21" target="14"><mxGeometry relative="1" as="geometry"/></mxCell><mxCell id="52" style="rounded=0;orthogonalLoop=1;jettySize=auto;html=1;exitX=0.5;exitY=0;exitDx=0;exitDy=0;entryX=0.5;entryY=1;entryDx=0;entryDy=0;fontSize=10;strokeColor=#B266FF;strokeWidth=2;" edge="1" parent="1" source="23" target="14"><mxGeometry relative="1" as="geometry"/></mxCell><mxCell id="53" style="rounded=0;orthogonalLoop=1;jettySize=auto;html=1;exitX=0.5;exitY=0;exitDx=0;exitDy=0;entryX=0.5;entryY=1;entryDx=0;entryDy=0;fontSize=10;strokeColor=#B266FF;strokeWidth=2;" edge="1" parent="1" source="24" target="14"><mxGeometry relative="1" as="geometry"/></mxCell><mxCell id="14" value="&lt;b style=&quot;color: rgb(240, 240, 240); font-family: Helvetica; font-style: normal; font-variant-ligatures: normal; font-variant-caps: normal; letter-spacing: normal; orphans: 2; text-align: center; text-indent: 0px; text-transform: none; widows: 2; word-spacing: 0px; -webkit-text-stroke-width: 0px; background-color: initial; text-decoration-thickness: initial; text-decoration-style: initial; text-decoration-color: initial; font-size: 16px;&quot;&gt;&lt;font style=&quot;font-size: 16px;&quot;&gt;Spring&lt;br&gt;Config Server&lt;br&gt;&lt;/font&gt;&lt;/b&gt;" style="rounded=1;whiteSpace=wrap;html=1;fontSize=14;verticalAlign=middle;strokeColor=#B266FF;strokeWidth=2;fillColor=#330066;" vertex="1" parent="1"><mxGeometry x="669" y="550" width="181" height="80" as="geometry"/></mxCell><mxCell id="80" value="&lt;font style=&quot;font-size: 9px;&quot;&gt;ARS_TRNS&lt;/font&gt;" style="shape=cylinder3;whiteSpace=wrap;html=1;boundedLbl=1;backgroundOutline=1;size=15;strokeWidth=2;fontSize=10;strokeColor=#00CC00;fillColor=#1A3300;shadow=1;" vertex="1" parent="1"><mxGeometry x="430" y="957.9979679144385" width="89" height="60.00000000000001" as="geometry"/></mxCell><mxCell id="82" style="rounded=0;orthogonalLoop=1;jettySize=auto;html=1;exitX=0;exitY=0.5;exitDx=0;exitDy=0;entryX=0.5;entryY=1;entryDx=0;entryDy=0;fontSize=10;strokeWidth=2;strokeColor=#CC0000;" edge="1" parent="1" source="14" target="12"><mxGeometry relative="1" as="geometry"><mxPoint x="775.5" y="774.9963068768177" as="sourcePoint"/><mxPoint x="477" y="473.76" as="targetPoint"/></mxGeometry></mxCell><mxCell id="83" value="" style="rounded=0;orthogonalLoop=1;jettySize=auto;html=1;entryX=0.5;entryY=1;entryDx=0;entryDy=0;fontSize=10;strokeColor=#B266FF;strokeWidth=2;exitX=0.5;exitY=0;exitDx=0;exitDy=0;endArrow=none;" edge="1" parent="1" source="25" target="14"><mxGeometry relative="1" as="geometry"><mxPoint x="746.5" y="777.9963068768177" as="sourcePoint"/><mxPoint x="731.5" y="599.47" as="targetPoint"/></mxGeometry></mxCell><mxCell id="85" value="&lt;h1&gt;Eureka Client&lt;br&gt;&lt;/h1&gt;" style="text;html=1;strokeColor=none;fillColor=none;spacing=5;spacingTop=-20;whiteSpace=wrap;overflow=hidden;rounded=1;strokeWidth=2;fontSize=9;" vertex="1" parent="1"><mxGeometry x="600" y="490" width="134" height="36.36" as="geometry"/></mxCell><mxCell id="89" value="&lt;h1&gt;Database&lt;br&gt;&lt;/h1&gt;" style="text;html=1;strokeColor=none;fillColor=none;spacing=5;spacingTop=-20;whiteSpace=wrap;overflow=hidden;rounded=0;strokeWidth=2;fontSize=9;" vertex="1" parent="1"><mxGeometry x="-11" y="1033.64" width="100" height="36.36" as="geometry"/></mxCell><mxCell id="7" value="&lt;h1 style=&quot;font-size: 12px;&quot;&gt;&lt;span style=&quot;background-color: initial; font-weight: normal;&quot;&gt;&lt;br&gt;&lt;/span&gt;&lt;/h1&gt;&lt;h1 style=&quot;font-size: 12px;&quot;&gt;&lt;span style=&quot;background-color: initial; font-weight: normal;&quot;&gt;Mobile App, Browser&lt;/span&gt;&lt;br&gt;&lt;/h1&gt;&lt;div style=&quot;font-size: 12px;&quot;&gt;&lt;font style=&quot;font-size: 12px;&quot;&gt;PC Browser&lt;/font&gt;&lt;/div&gt;" style="text;html=1;strokeColor=none;fillColor=none;spacing=5;spacingTop=-20;whiteSpace=wrap;overflow=hidden;rounded=0;fontSize=18;" vertex="1" parent="1"><mxGeometry x="-120" y="-60" width="140" height="70" as="geometry"/></mxCell><mxCell id="109" value="" style="group" vertex="1" connectable="0" parent="1"><mxGeometry x="202" y="-170" width="490" height="450" as="geometry"/></mxCell><mxCell id="4" value="&lt;div style=&quot;&quot;&gt;&lt;br&gt;&lt;/div&gt;" style="rounded=0;whiteSpace=wrap;html=1;align=center;strokeColor=#33FFFF;strokeWidth=2;" vertex="1" parent="109"><mxGeometry y="-38" width="490" height="450" as="geometry"/></mxCell><mxCell id="106" value="" style="group" vertex="1" connectable="0" parent="109"><mxGeometry x="235" y="-12" width="220" height="410" as="geometry"/></mxCell><mxCell id="90" value="&lt;div style=&quot;&quot;&gt;&lt;br&gt;&lt;/div&gt;" style="rounded=0;whiteSpace=wrap;html=1;align=center;verticalAlign=top;strokeWidth=1;" vertex="1" parent="106"><mxGeometry width="220" height="410" as="geometry"/></mxCell><mxCell id="99" value="&lt;h1&gt;Database&lt;br&gt;&lt;/h1&gt;" style="text;html=1;strokeColor=none;fillColor=none;spacing=5;spacingTop=-20;whiteSpace=wrap;overflow=hidden;rounded=0;strokeWidth=2;fontSize=9;" vertex="1" parent="106"><mxGeometry x="70" width="100" height="36.36" as="geometry"/></mxCell><mxCell id="103" value="" style="group" vertex="1" connectable="0" parent="106"><mxGeometry x="50" y="310" width="129" height="91" as="geometry"/></mxCell><mxCell id="98" value="&lt;font style=&quot;font-size: 9px;&quot;&gt;APPL_REQ_INFO&lt;/font&gt;" style="shape=cylinder3;whiteSpace=wrap;html=1;boundedLbl=1;backgroundOutline=1;size=15;strokeWidth=2;fontSize=10;strokeColor=#9999FF;fillColor=#000066;shadow=1;" vertex="1" parent="103"><mxGeometry y="31" width="129" height="60" as="geometry"/></mxCell><mxCell id="93" value="&lt;font style=&quot;font-size: 9px;&quot;&gt;PAY_REQ_MGMT&lt;/font&gt;" style="shape=cylinder3;whiteSpace=wrap;html=1;boundedLbl=1;backgroundOutline=1;size=15;strokeWidth=2;fontSize=10;strokeColor=#9999FF;fillColor=#000066;shadow=1;" vertex="1" parent="103"><mxGeometry width="129" height="60" as="geometry"/></mxCell><mxCell id="104" value="" style="group" vertex="1" connectable="0" parent="106"><mxGeometry x="50" y="170" width="129" height="153" as="geometry"/></mxCell><mxCell id="102" value="&lt;font style=&quot;font-size: 9px;&quot;&gt;USER_TKN_ADD_INFO&lt;/font&gt;" style="shape=cylinder3;whiteSpace=wrap;html=1;boundedLbl=1;backgroundOutline=1;size=15;strokeWidth=2;fontSize=10;strokeColor=#9999FF;fillColor=#000066;shadow=1;" vertex="1" parent="104"><mxGeometry y="93" width="129" height="60" as="geometry"/></mxCell><mxCell id="101" value="&lt;font style=&quot;font-size: 9px;&quot;&gt;PRTT_SACE_INFO&lt;/font&gt;" style="shape=cylinder3;whiteSpace=wrap;html=1;boundedLbl=1;backgroundOutline=1;size=15;strokeWidth=2;fontSize=10;strokeColor=#9999FF;fillColor=#000066;shadow=1;" vertex="1" parent="104"><mxGeometry y="62" width="129" height="60" as="geometry"/></mxCell><mxCell id="92" value="&lt;font style=&quot;font-size: 9px;&quot;&gt;USER_JNOFFC_TKN_INFO&lt;/font&gt;" style="shape=cylinder3;whiteSpace=wrap;html=1;boundedLbl=1;backgroundOutline=1;size=15;strokeWidth=2;fontSize=10;strokeColor=#9999FF;fillColor=#000066;shadow=1;" vertex="1" parent="104"><mxGeometry y="31" width="129" height="60" as="geometry"/></mxCell><mxCell id="100" value="&lt;font style=&quot;font-size: 9px;&quot;&gt;USER_TKN_INFO&lt;/font&gt;" style="shape=cylinder3;whiteSpace=wrap;html=1;boundedLbl=1;backgroundOutline=1;size=15;strokeWidth=2;fontSize=10;strokeColor=#9999FF;fillColor=#000066;shadow=1;" vertex="1" parent="104"><mxGeometry width="129" height="60" as="geometry"/></mxCell><mxCell id="105" value="" style="group" vertex="1" connectable="0" parent="106"><mxGeometry x="50" y="90" width="129" height="91" as="geometry"/></mxCell><mxCell id="96" value="&lt;font style=&quot;font-size: 9px;&quot;&gt;USER_JNOFFC_INFO&lt;/font&gt;" style="shape=cylinder3;whiteSpace=wrap;html=1;boundedLbl=1;backgroundOutline=1;size=15;strokeWidth=2;fontSize=10;strokeColor=#9999FF;fillColor=#000066;shadow=1;" vertex="1" parent="105"><mxGeometry y="31" width="129" height="60" as="geometry"/></mxCell><mxCell id="91" value="&lt;span style=&quot;font-size: 9px;&quot;&gt;USER_INFO&lt;/span&gt;" style="shape=cylinder3;whiteSpace=wrap;html=1;boundedLbl=1;backgroundOutline=1;size=15;strokeWidth=2;fontSize=10;strokeColor=#9999FF;fillColor=#000066;shadow=1;" vertex="1" parent="105"><mxGeometry width="129" height="60" as="geometry"/></mxCell><mxCell id="108" value="&lt;span style=&quot;font-size: 9px;&quot;&gt;JNOFFC_TRNS&lt;/span&gt;" style="shape=cylinder3;whiteSpace=wrap;html=1;boundedLbl=1;backgroundOutline=1;size=15;strokeWidth=2;fontSize=10;strokeColor=#00CC00;fillColor=#1A3300;shadow=1;" vertex="1" parent="106"><mxGeometry x="50" y="30" width="129" height="60" as="geometry"/></mxCell><mxCell id="107" value="&lt;h1&gt;&lt;div style=&quot;font-size: 12px; font-weight: 400; text-align: center;&quot;&gt;&lt;span style=&quot;background-color: initial;&quot;&gt;&lt;b&gt;&lt;font style=&quot;font-size: 18px;&quot;&gt;WPAY Front-End&lt;/font&gt;&lt;/b&gt;&lt;/span&gt;&lt;/div&gt;&lt;div style=&quot;font-size: 12px; font-weight: 400; text-align: center;&quot;&gt;&lt;span style=&quot;background-color: initial;&quot;&gt;&lt;br&gt;&lt;/span&gt;&lt;/div&gt;&lt;div style=&quot;font-size: 12px; font-weight: 400; text-align: center;&quot;&gt;&lt;span style=&quot;background-color: initial;&quot;&gt;web page&lt;/span&gt;&lt;/div&gt;&lt;div style=&quot;font-size: 12px; font-weight: 400; text-align: center;&quot;&gt;&lt;span style=&quot;background-color: initial;&quot;&gt;&lt;br&gt;&lt;/span&gt;&lt;/div&gt;&lt;div style=&quot;font-size: 12px; font-weight: 400; text-align: center;&quot;&gt;&lt;span style=&quot;background-color: initial;&quot;&gt;restful API&lt;/span&gt;&lt;/div&gt;&lt;/h1&gt;" style="text;html=1;strokeColor=none;fillColor=none;spacing=5;spacingTop=-20;whiteSpace=wrap;overflow=hidden;rounded=0;shadow=1;glass=0;sketch=0;strokeWidth=1;fontSize=16;" vertex="1" parent="109"><mxGeometry x="20" y="50" width="157" height="140" as="geometry"/></mxCell><mxCell id="110" style="edgeStyle=orthogonalEdgeStyle;rounded=0;orthogonalLoop=1;jettySize=auto;html=1;exitX=0.5;exitY=1;exitDx=0;exitDy=0;entryX=0.5;entryY=0;entryDx=0;entryDy=0;strokeColor=#33FFFF;strokeWidth=2;fontSize=16;" edge="1" parent="1" source="4" target="13"><mxGeometry relative="1" as="geometry"><Array as="points"><mxPoint x="447" y="280"/><mxPoint x="105" y="280"/></Array></mxGeometry></mxCell><mxCell id="111" style="edgeStyle=orthogonalEdgeStyle;rounded=0;orthogonalLoop=1;jettySize=auto;html=1;exitX=0.5;exitY=1;exitDx=0;exitDy=0;entryX=0.5;entryY=0;entryDx=0;entryDy=0;strokeColor=#33FFFF;strokeWidth=2;fontSize=16;" edge="1" parent="1" source="4" target="14"><mxGeometry relative="1" as="geometry"><Array as="points"><mxPoint x="447" y="280"/><mxPoint x="760" y="280"/></Array></mxGeometry></mxCell><mxCell id="113" value="&lt;b style=&quot;color: rgb(240, 240, 240); font-family: Helvetica; font-style: normal; font-variant-ligatures: normal; font-variant-caps: normal; letter-spacing: normal; orphans: 2; text-align: center; text-indent: 0px; text-transform: none; widows: 2; word-spacing: 0px; -webkit-text-stroke-width: 0px; background-color: initial; text-decoration-thickness: initial; text-decoration-style: initial; text-decoration-color: initial;&quot;&gt;&lt;font style=&quot;font-size: 18px;&quot;&gt;Eureka Server&lt;/font&gt;&lt;/b&gt;" style="rounded=1;whiteSpace=wrap;html=1;fontSize=14;verticalAlign=middle;strokeColor=#990000;strokeWidth=2;fillColor=#660033;shadow=1;" vertex="1" parent="1"><mxGeometry x="1130" y="410" width="330" height="47.29" as="geometry"/></mxCell><mxCell id="118" style="rounded=0;orthogonalLoop=1;jettySize=auto;html=1;exitX=0.5;exitY=0;exitDx=0;exitDy=0;entryX=0.5;entryY=1;entryDx=0;entryDy=0;strokeColor=#CC0000;strokeWidth=2;fontSize=16;fillColor=#a20025;" edge="1" parent="1" source="114" target="113"><mxGeometry relative="1" as="geometry"/></mxCell><mxCell id="137" style="edgeStyle=none;rounded=0;orthogonalLoop=1;jettySize=auto;html=1;exitX=0.5;exitY=1;exitDx=0;exitDy=0;entryX=0.5;entryY=0;entryDx=0;entryDy=0;strokeColor=#FFFF00;strokeWidth=2;fontSize=16;dashed=1;" edge="1" parent="1" source="114" target="120"><mxGeometry relative="1" as="geometry"/></mxCell><mxCell id="138" style="edgeStyle=none;rounded=0;orthogonalLoop=1;jettySize=auto;html=1;exitX=0.5;exitY=1;exitDx=0;exitDy=0;entryX=0.5;entryY=0;entryDx=0;entryDy=0;dashed=1;strokeColor=#FFFF00;strokeWidth=2;fontSize=16;" edge="1" parent="1" source="114" target="121"><mxGeometry relative="1" as="geometry"/></mxCell><mxCell id="139" style="edgeStyle=none;rounded=0;orthogonalLoop=1;jettySize=auto;html=1;exitX=0.5;exitY=1;exitDx=0;exitDy=0;entryX=0.5;entryY=0;entryDx=0;entryDy=0;dashed=1;strokeColor=#FFFF00;strokeWidth=2;fontSize=16;" edge="1" parent="1" source="114" target="122"><mxGeometry relative="1" as="geometry"/></mxCell><mxCell id="114" value="&lt;b style=&quot;color: rgb(240, 240, 240); font-family: Helvetica; font-style: normal; font-variant-ligatures: normal; font-variant-caps: normal; letter-spacing: normal; orphans: 2; text-align: center; text-indent: 0px; text-transform: none; widows: 2; word-spacing: 0px; -webkit-text-stroke-width: 0px; background-color: initial; text-decoration-thickness: initial; text-decoration-style: initial; text-decoration-color: initial; font-size: 16px;&quot;&gt;&lt;font style=&quot;font-size: 16px;&quot;&gt;Spring&lt;br&gt;Gateway&lt;br&gt;&lt;/font&gt;&lt;/b&gt;" style="rounded=1;whiteSpace=wrap;html=1;fontSize=14;verticalAlign=middle;strokeColor=#FF99FF;strokeWidth=2;" vertex="1" parent="1"><mxGeometry x="1040" y="510" width="170" height="80" as="geometry"/></mxCell><mxCell id="116" style="edgeStyle=orthogonalEdgeStyle;rounded=0;orthogonalLoop=1;jettySize=auto;html=1;exitX=1;exitY=0.5;exitDx=0;exitDy=0;entryX=0;entryY=0.5;entryDx=0;entryDy=0;strokeColor=#FFFF00;strokeWidth=2;fontSize=16;" edge="1" parent="1" source="25" target="114"><mxGeometry relative="1" as="geometry"><Array as="points"><mxPoint x="960" y="799"/><mxPoint x="960" y="550"/></Array></mxGeometry></mxCell><mxCell id="123" style="edgeStyle=none;rounded=0;orthogonalLoop=1;jettySize=auto;html=1;exitX=0.5;exitY=0;exitDx=0;exitDy=0;strokeColor=#CC0000;strokeWidth=2;fontSize=16;entryX=0.5;entryY=1;entryDx=0;entryDy=0;" edge="1" parent="1" source="120" target="113"><mxGeometry relative="1" as="geometry"/></mxCell><mxCell id="120" value="&lt;span style=&quot;font-size: 10px;&quot;&gt;AUTH TOKEN&lt;/span&gt;" style="rounded=1;whiteSpace=wrap;html=1;strokeWidth=2;fontSize=14;strokeColor=#FFFF33;fillColor=#331A00;shadow=1;" vertex="1" parent="1"><mxGeometry x="1068.5" y="769.9963068768177" width="95" height="41.2280701754386" as="geometry"/></mxCell><mxCell id="124" style="edgeStyle=none;rounded=0;orthogonalLoop=1;jettySize=auto;html=1;exitX=0.5;exitY=0;exitDx=0;exitDy=0;entryX=0.5;entryY=1;entryDx=0;entryDy=0;strokeColor=#CC0000;strokeWidth=2;fontSize=16;" edge="1" parent="1" source="121" target="113"><mxGeometry relative="1" as="geometry"/></mxCell><mxCell id="141" style="edgeStyle=none;rounded=0;orthogonalLoop=1;jettySize=auto;html=1;exitX=0.5;exitY=1;exitDx=0;exitDy=0;entryX=0.5;entryY=0;entryDx=0;entryDy=0;entryPerimeter=0;strokeColor=#9999FF;strokeWidth=2;fontFamily=Helvetica;fontSize=10;" edge="1" parent="1" source="121" target="130"><mxGeometry relative="1" as="geometry"/></mxCell><mxCell id="121" value="&lt;span style=&quot;font-size: 10px;&quot;&gt;PPCARD&lt;/span&gt;" style="rounded=1;whiteSpace=wrap;html=1;strokeWidth=2;fontSize=14;strokeColor=#FFFF33;fillColor=#331A00;shadow=1;" vertex="1" parent="1"><mxGeometry x="1240" y="769.9963068768177" width="95" height="41.2280701754386" as="geometry"/></mxCell><mxCell id="125" style="edgeStyle=none;rounded=0;orthogonalLoop=1;jettySize=auto;html=1;exitX=0.5;exitY=0;exitDx=0;exitDy=0;strokeColor=#CC0000;strokeWidth=2;fontSize=16;entryX=0.5;entryY=1;entryDx=0;entryDy=0;" edge="1" parent="1" source="122" target="113"><mxGeometry relative="1" as="geometry"><mxPoint x="1290" y="310" as="targetPoint"/></mxGeometry></mxCell><mxCell id="142" style="edgeStyle=none;rounded=0;orthogonalLoop=1;jettySize=auto;html=1;exitX=0.5;exitY=1;exitDx=0;exitDy=0;entryX=0.5;entryY=0;entryDx=0;entryDy=0;entryPerimeter=0;strokeColor=#9999FF;strokeWidth=2;fontFamily=Helvetica;fontSize=10;" edge="1" parent="1" source="122" target="129"><mxGeometry relative="1" as="geometry"/></mxCell><mxCell id="122" value="&lt;span style=&quot;font-size: 10px;&quot;&gt;PPCARD MONEY&lt;/span&gt;" style="rounded=1;whiteSpace=wrap;html=1;strokeWidth=2;fontSize=14;strokeColor=#FFFF33;fillColor=#331A00;shadow=1;" vertex="1" parent="1"><mxGeometry x="1410" y="769.9963068768177" width="95" height="41.2280701754386" as="geometry"/></mxCell><mxCell id="126" value="&lt;h1&gt;Eureka Client&lt;br&gt;&lt;/h1&gt;" style="text;html=1;strokeColor=none;fillColor=none;spacing=5;spacingTop=-20;whiteSpace=wrap;overflow=hidden;rounded=1;strokeWidth=2;fontSize=9;" vertex="1" parent="1"><mxGeometry x="1400" y="490" width="134" height="36.36" as="geometry"/></mxCell><mxCell id="128" value="&lt;div style=&quot;line-height: 19px;&quot;&gt;&lt;font style=&quot;font-size: 10px;&quot; color=&quot;#d4d4d4&quot;&gt;PPCD_AUTH_TKN_MGMT&lt;/font&gt;&lt;br&gt;&lt;/div&gt;" style="shape=cylinder3;whiteSpace=wrap;html=1;boundedLbl=1;backgroundOutline=1;size=15;strokeWidth=2;fontSize=10;strokeColor=#9999FF;fillColor=#000066;shadow=1;" vertex="1" parent="1"><mxGeometry x="1046" y="958" width="140" height="60" as="geometry"/></mxCell><mxCell id="129" value="&lt;font style=&quot;font-size: 9px;&quot;&gt;PPCD_MONEY_MGMT&lt;/font&gt;" style="shape=cylinder3;whiteSpace=wrap;html=1;boundedLbl=1;backgroundOutline=1;size=15;strokeWidth=2;fontSize=10;strokeColor=#9999FF;fillColor=#000066;shadow=1;" vertex="1" parent="1"><mxGeometry x="1397.5" y="958" width="120" height="60" as="geometry"/></mxCell><mxCell id="130" value="&lt;font style=&quot;font-size: 10px;&quot;&gt;PPCD_INFO&lt;/font&gt;" style="shape=cylinder3;whiteSpace=wrap;html=1;boundedLbl=1;backgroundOutline=1;size=15;strokeWidth=2;fontSize=10;strokeColor=#9999FF;fillColor=#000066;shadow=1;" vertex="1" parent="1"><mxGeometry x="1229" y="958" width="117" height="60" as="geometry"/></mxCell><mxCell id="135" value="&lt;font style=&quot;font-size: 9px;&quot;&gt;PPCD_AUTO_INFO&lt;/font&gt;" style="shape=cylinder3;whiteSpace=wrap;html=1;boundedLbl=1;backgroundOutline=1;size=15;strokeWidth=2;fontSize=10;strokeColor=#9999FF;fillColor=#000066;shadow=1;" vertex="1" parent="1"><mxGeometry x="1578" y="958" width="122" height="60" as="geometry"/></mxCell><mxCell id="136" value="&lt;h1&gt;Database&lt;br&gt;&lt;/h1&gt;" style="text;html=1;strokeColor=none;fillColor=none;spacing=5;spacingTop=-20;whiteSpace=wrap;overflow=hidden;rounded=0;strokeWidth=2;fontSize=9;" vertex="1" parent="1"><mxGeometry x="1020" y="1041.64" width="100" height="36.36" as="geometry"/></mxCell><mxCell id="140" style="edgeStyle=none;rounded=0;orthogonalLoop=1;jettySize=auto;html=1;exitX=0.5;exitY=1;exitDx=0;exitDy=0;strokeColor=#9999FF;strokeWidth=2;fontFamily=Helvetica;fontSize=10;" edge="1" parent="1" source="120" target="128"><mxGeometry relative="1" as="geometry"/></mxCell><mxCell id="134" value="&lt;font style=&quot;font-size: 9px;&quot;&gt;PPCD_RESV_INFO&lt;/font&gt;" style="shape=cylinder3;whiteSpace=wrap;html=1;boundedLbl=1;backgroundOutline=1;size=15;strokeWidth=2;fontSize=10;strokeColor=#9999FF;fillColor=#000066;shadow=1;" vertex="1" parent="1"><mxGeometry x="1578" y="920" width="122" height="60" as="geometry"/></mxCell><mxCell id="143" style="edgeStyle=orthogonalEdgeStyle;rounded=0;orthogonalLoop=1;jettySize=auto;html=1;exitX=1;exitY=0.5;exitDx=0;exitDy=0;entryX=0;entryY=0.5;entryDx=0;entryDy=0;strokeColor=#66FFFF;strokeWidth=2;fontFamily=Helvetica;fontSize=10;" edge="1" parent="1" source="4" target="114"><mxGeometry relative="1" as="geometry"><Array as="points"><mxPoint x="960" y="17"/><mxPoint x="960" y="550"/></Array></mxGeometry></mxCell><mxCell id="144" value="&lt;h1 style=&quot;font-size: 12px;&quot;&gt;&lt;div style=&quot;&quot;&gt;&lt;div&gt;&lt;span style=&quot;font-weight: normal;&quot;&gt;WPAY 웹페이지에서 PPCARD&amp;nbsp;&lt;/span&gt;&lt;/div&gt;&lt;div&gt;&lt;span style=&quot;font-weight: normal;&quot;&gt;데이터 조회 시 다이렉트 연동 거눙&lt;/span&gt;&lt;/div&gt;&lt;div&gt;&lt;span style=&quot;font-weight: normal;&quot;&gt;HTTP Method GET 만 허용&lt;/span&gt;&lt;/div&gt;&lt;/div&gt;&lt;/h1&gt;" style="text;html=1;strokeColor=none;fillColor=none;spacing=5;spacingTop=-20;whiteSpace=wrap;overflow=hidden;rounded=0;shadow=1;glass=0;sketch=0;strokeWidth=1;fontSize=16;align=left;" vertex="1" parent="1"><mxGeometry x="963" y="50" width="197" height="50" as="geometry"/></mxCell></root></mxGraphModel></diagram></mxfile>